# xmcd
#
# Track frame offsets:
#	150
#	12910
#	29132
#	42960
#	57827
#	73995
#	102677
#	119182
#	132820
#	146702
#	153370
#	170737
#	183307
#
# Disc length: 2581 seconds
# Revision: 5
# Processed by: cddbd v1.5.2PL0 Copyright (c) Steve Scherf et al.
# Submitted via: dBpowerAMP V12.0
#
DISCID=ca0a130d
DTITLE=Various Artist - Muddy and The Wolf
DYEAR=1974
DGENRE=Blues
TTITLE0=Muddy Waters - All Aboard
TTITLE1=Muddy Waters - Blow Wind Blow
TTITLE2=Muddy Waters - Can't Lose What You Ain't Never Had
TTITLE3=Muddy Waters - Walkin' Thru the Park
TTITLE4=Muddy Waters - I'm Ready
TTITLE5=Muddy Waters - Long Distance Call
TTITLE6=Howlin' Wolf - Rockin' Daddy
TTITLE7=Howlin' Wolf - What a Woman!
TTITLE8=Howlin' Wolf - Who's Been Talking?
TTITLE9=Howlin' Wolf - Red Rooster (rehearsal)
TTITLE10=Howlin' Wolf - Red Rooster
TTITLE11=Howlin' Wolf - Highway 49
TTITLE12=Howlin' Wolf - Do the Do
EXTD=
EXTT0=
EXTT1=
EXTT2=
EXTT3=
EXTT4=
EXTT5=
EXTT6=
EXTT7=
EXTT8=
EXTT9=
EXTT10=
EXTT11=
EXTT12=
PLAYORDER=
